<?xml version="1.0" standalone="no"?>
<!DOCTYPE svg PUBLIC "-//W3C//DTD SVG 20010904//EN"
 "http://www.w3.org/TR/2001/REC-SVG-20010904/DTD/svg10.dtd">
<svg version="1.0" xmlns="http://www.w3.org/2000/svg"
 width="525.000000pt" height="525.000000pt" viewBox="0 0 525.000000 525.000000"
 preserveAspectRatio="xMidYMid meet">
<metadata>
Created by potrace 1.14, written by Peter Selinger 2001-2017
</metadata>
<g transform="translate(0.000000,525.000000) scale(0.100000,-0.100000)"
fill="#000000" stroke="none">
<path d="M4087 3958 c-22 -6 -75 -28 -118 -49 -44 -22 -84 -39 -89 -39 -6 0
-10 -4 -10 -10 0 -5 -5 -10 -11 -10 -6 0 -33 -16 -59 -35 -26 -19 -52 -35 -56
-35 -5 0 -20 -10 -34 -23 -14 -12 -58 -45 -99 -72 -107 -72 -158 -127 -170
-183 -5 -25 -7 -52 -3 -60 3 -8 -1 -20 -9 -26 -28 -22 -70 -94 -89 -153 -7
-21 -17 -44 -23 -51 -5 -6 -9 -32 -9 -56 1 -36 -6 -54 -41 -102 -23 -33 -49
-68 -59 -78 -16 -18 -19 -24 -18 -41 0 -3 -14 -18 -32 -33 -18 -15 -35 -29
-38 -32 -10 -11 -81 -50 -92 -50 -6 0 -36 26 -68 58 -32 32 -79 76 -106 98
-27 21 -54 44 -61 50 -46 44 -257 104 -362 104 -81 0 -231 -23 -288 -44 -23
-8 -60 -25 -82 -38 -36 -20 -43 -21 -76 -10 -62 23 -138 26 -177 8 -89 -43
-135 -127 -145 -266 -5 -74 -9 -89 -33 -115 -20 -22 -30 -49 -39 -102 -12 -70
-14 -73 -40 -73 -46 0 -218 -150 -258 -225 -9 -16 -19 -32 -23 -35 -13 -9 -56
-85 -77 -136 -12 -29 -38 -78 -59 -110 -93 -138 -123 -196 -139 -269 -9 -38
-24 -88 -34 -110 -52 -112 -71 -159 -71 -171 0 -19 -28 -100 -56 -162 -13 -29
-24 -55 -24 -58 0 -3 -7 -20 -15 -37 -26 -55 -105 -369 -111 -437 -12 -168
-27 -238 -100 -455 -29 -85 -34 -114 -34 -192 l0 -93 195 0 195 0 0 48 c0 52
19 133 41 173 15 29 59 84 130 163 67 74 139 177 139 198 0 15 57 56 64 46 1
-2 8 -18 15 -35 8 -18 17 -33 22 -33 4 0 10 -8 13 -18 3 -10 19 -26 36 -35 37
-22 37 -30 4 -46 -20 -9 -30 -9 -40 0 -12 9 -20 7 -38 -10 l-24 -22 -22 31
c-15 21 -26 28 -32 22 -7 -7 -3 -21 11 -41 24 -33 60 -41 80 -17 7 8 20 12 30
9 29 -7 91 26 91 48 0 11 -4 19 -8 19 -10 0 -70 58 -88 86 -13 18 -18 69 -15
133 1 17 5 21 17 17 8 -3 31 1 50 9 40 16 47 41 9 31 -14 -3 -36 -9 -50 -12
-38 -10 -32 23 13 74 l37 42 120 1 c66 0 128 -2 138 -6 16 -7 17 -2 12 56 -5
45 0 93 14 163 12 54 21 102 21 106 0 4 -15 14 -32 21 -18 7 -50 29 -70 47
-21 19 -41 32 -46 30 -12 -4 -93 -105 -121 -150 -38 -62 -34 -43 8 41 24 48
44 106 51 147 12 72 56 249 67 268 3 6 14 20 24 31 16 18 17 31 9 115 -10 108
-28 197 -65 320 -14 46 -28 115 -31 151 -6 57 -4 72 14 101 32 52 61 132 77
216 16 80 32 122 47 122 4 0 8 -9 8 -19 0 -28 11 -52 21 -45 5 3 9 16 9 30 0
17 5 24 20 24 11 0 20 -7 20 -15 0 -12 4 -13 18 -7 9 5 26 6 37 2 10 -4 31 -2
46 3 37 14 59 3 59 -31 0 -50 18 -62 73 -52 115 22 207 146 207 277 0 55 -16
86 -74 143 -52 50 -56 60 -22 60 31 0 126 -88 126 -117 0 -12 4 -24 8 -27 11
-7 12 -135 2 -156 -4 -8 -16 -32 -26 -54 -34 -69 -97 -131 -155 -149 -28 -9
-66 -17 -85 -17 -18 0 -36 -5 -39 -11 -4 -6 -7 -137 -6 -291 l1 -280 97 -94
c78 -75 108 -97 147 -109 66 -20 83 -19 206 9 154 35 222 63 354 146 65 41
146 92 180 114 83 52 99 57 138 44 42 -13 68 -43 68 -77 0 -26 -72 -141 -88
-141 -4 0 -35 -26 -69 -57 -78 -73 -316 -253 -334 -253 -5 0 -9 8 -9 18 0 10
-16 36 -35 58 -23 25 -35 33 -35 23 0 -9 7 -22 16 -29 14 -13 48 -80 42 -85
-13 -12 -103 -27 -193 -32 -86 -4 -127 -12 -188 -34 -64 -24 -94 -29 -167 -29
-97 0 -120 -5 -120 -26 0 -11 21 -14 98 -14 83 0 113 5 183 29 56 19 116 31
179 36 163 12 194 20 272 71 92 59 288 206 308 231 9 10 27 27 40 38 14 11 49
49 78 85 42 53 52 72 52 103 0 41 -15 74 -43 95 -16 12 -15 16 11 55 15 23 36
62 47 87 26 62 62 100 97 100 35 0 42 -25 36 -119 -5 -67 -59 -250 -81 -274
-20 -21 -72 -90 -91 -122 -11 -16 -48 -67 -84 -113 l-65 -82 -22 20 c-12 11
-28 20 -36 20 -9 -1 -3 -10 14 -26 23 -20 27 -27 17 -39 -6 -8 -22 -17 -33
-21 -55 -17 -356 -164 -387 -189 -17 -14 -146 -86 -173 -97 -11 -5 -57 6 -119
27 -111 38 -138 42 -138 21 0 -15 201 -86 243 -86 12 0 36 8 54 18 17 9 60 32
95 51 34 18 70 39 78 46 18 15 167 93 230 119 169 72 192 89 265 192 25 35 50
64 56 64 5 0 9 5 9 11 0 6 24 43 53 83 78 104 84 114 112 201 19 57 28 107 30
175 2 59 8 95 14 94 6 -1 20 -2 31 -2 57 -5 21 -187 -78 -392 -40 -83 -173
-233 -322 -361 -47 -41 -98 -86 -115 -100 -16 -15 -73 -63 -125 -108 -52 -45
-117 -102 -144 -126 -27 -25 -53 -45 -59 -45 -6 0 -41 16 -78 35 -50 26 -81
35 -116 35 l-48 0 -29 -123 c-16 -67 -42 -156 -57 -197 -43 -120 -88 -298 -99
-395 -26 -234 -45 -332 -84 -443 l-15 -42 299 0 300 0 4 23 c3 12 10 62 16
110 16 129 21 137 89 137 l57 0 12 -78 c7 -42 12 -92 12 -110 0 -17 3 -32 8
-32 8 0 44 90 64 158 12 44 35 62 78 62 23 0 28 -21 36 -158 5 -84 10 -112 21
-112 10 0 13 29 13 140 0 126 2 140 18 141 9 0 41 3 70 5 l52 5 0 -36 c0 -33
-2 -35 -34 -35 -30 0 -34 -4 -40 -31 -9 -48 -7 -109 4 -109 6 0 16 11 22 25
18 40 33 23 36 -42 l3 -60 43 -1 c40 -2 45 1 56 29 14 32 16 24 -61 218 -5 13
-8 25 -7 26 2 2 28 5 58 6 54 4 54 4 64 -28 9 -32 26 -45 26 -21 0 6 3 8 6 5
4 -4 1 -13 -6 -22 -7 -9 -10 -19 -6 -23 8 -7 20 7 48 57 13 24 24 31 48 31 41
0 39 -16 -18 -126 -41 -79 -46 -95 -38 -122 9 -31 11 -32 62 -32 l52 0 8 98
c4 53 8 114 8 135 l0 37 48 0 49 0 -7 -135 c-5 -96 -4 -135 4 -135 7 0 11 33
11 98 -1 68 4 110 15 137 l16 38 47 -7 c64 -8 78 -25 77 -89 0 -68 -8 -87 -38
-87 -21 0 -25 6 -30 45 -13 86 -36 37 -36 -76 l0 -59 64 0 c56 0 66 3 71 20 3
11 3 25 -1 31 -4 7 -3 9 4 5 12 -7 76 100 87 146 6 25 12 28 51 28 l43 0 -6
-115 -6 -115 41 0 41 0 10 52 c6 29 13 79 17 111 l7 59 36 -7 c20 -4 38 -9 40
-11 3 -2 -3 -39 -13 -82 -9 -42 -19 -87 -21 -98 -4 -19 -1 -21 35 -20 39 1 40
2 51 51 6 28 13 62 15 76 5 42 23 79 36 79 7 0 23 -3 36 -6 21 -6 23 -10 16
-48 -4 -22 -10 -67 -14 -98 -6 -57 -6 -58 20 -58 25 0 25 2 23 58 -6 150 -43
430 -62 472 -6 14 -20 39 -30 55 -11 17 -20 36 -20 43 -1 6 -12 35 -26 63 -13
29 -22 55 -20 60 3 4 -9 29 -27 56 -18 26 -40 61 -49 78 -9 16 -27 33 -40 36
-13 4 -20 7 -16 8 5 1 -1 14 -12 30 -37 52 -173 140 -220 144 -12 1 -21 5 -21
9 0 4 -9 8 -19 8 -11 0 -21 5 -23 11 -6 18 -125 35 -218 32 -149 -4 -329 -59
-399 -122 -13 -11 -28 -21 -33 -21 -18 0 -40 -31 -34 -47 5 -13 4 -14 -8 -4
-12 10 -26 1 -78 -52 -77 -78 -125 -131 -160 -177 -14 -19 -36 -46 -49 -59
-31 -33 -109 -148 -109 -161 0 -5 -3 -10 -8 -10 -12 0 -50 -110 -67 -195 -25
-128 -25 -129 -36 -118 -20 20 -23 129 -4 185 58 180 217 406 429 611 70 68
98 87 211 142 118 57 141 65 243 80 122 18 246 10 331 -20 116 -40 303 -181
359 -268 18 -29 55 -99 83 -157 28 -58 64 -131 80 -163 68 -132 99 -280 99
-474 l0 -133 185 0 c102 0 185 1 185 3 0 2 -7 26 -15 53 -8 27 -17 65 -20 84
-21 139 -38 234 -65 360 -63 300 -70 347 -70 434 0 68 -6 111 -26 175 -14 48
-29 91 -34 96 -17 23 -39 126 -45 215 -16 252 -26 274 -180 395 -62 50 -115
99 -117 109 -5 30 -23 30 -37 0 -15 -33 -23 -25 -36 33 -5 26 -15 48 -21 50
-22 7 -64 -37 -64 -68 0 -36 -12 -37 -45 -1 -23 25 -24 27 -7 32 10 3 37 21
60 40 56 47 46 60 -54 67 -77 5 -154 32 -154 53 0 5 -23 21 -51 35 -63 32
-134 32 -134 0 0 -10 14 -28 30 -40 l30 -20 -5 -95 c-3 -52 -2 -110 3 -128 5
-19 6 -40 3 -48 -7 -19 -87 -18 -145 2 l-46 17 4 134 c3 134 -3 176 -37 271
-21 59 -4 77 36 39 15 -15 33 -27 39 -27 12 0 23 23 23 50 0 11 11 31 25 46
28 30 30 40 14 50 -6 4 -8 16 -3 33 4 14 9 55 10 91 3 98 29 253 47 281 23 35
67 65 111 77 20 6 44 20 54 32 11 14 40 26 87 35 90 19 149 19 189 0 31 -15
33 -18 50 -126 10 -61 16 -112 14 -114 -2 -2 -25 12 -53 30 -47 32 -65 36 -65
13 0 -16 106 -145 140 -170 17 -12 30 -28 30 -36 0 -9 -14 -2 -37 18 -20 18
-39 28 -41 22 -3 -9 56 -70 88 -92 4 -3 14 -19 23 -36 17 -33 78 -97 145 -152
23 -19 42 -41 42 -48 0 -14 38 -35 70 -40 8 -1 31 -9 50 -18 l35 -16 -36 4
c-20 2 -50 11 -67 20 -41 21 -46 20 -78 -9 -25 -23 -26 -26 -11 -43 11 -12 13
-22 7 -28 -7 -7 -6 -11 5 -11 8 0 13 2 11 5 -3 2 4 13 14 24 16 18 31 20 128
19 61 0 122 -5 137 -11 15 -6 50 -9 78 -8 31 1 52 -3 55 -10 2 -7 14 -12 26
-12 26 0 46 -18 46 -41 0 -41 73 -140 150 -201 28 -23 43 -28 92 -28 54 0 62
3 95 36 l36 36 -6 72 c-3 39 -11 85 -17 101 -7 17 -18 44 -25 60 -24 56 -104
300 -124 377 -21 82 -17 117 22 210 8 20 13 39 10 42 -3 3 -1 11 5 19 24 28
33 119 32 315 0 226 0 225 -73 316 -23 29 -53 72 -67 95 -14 24 -49 69 -78
101 -29 31 -65 77 -81 101 -62 96 -174 164 -287 175 -32 2 -78 11 -103 19 -58
17 -323 27 -374 13z m266 -35 c-13 -2 -35 -2 -50 0 -16 2 -5 4 22 4 28 0 40
-2 28 -4z m-153 -18 c0 -1 -10 -5 -23 -7 -14 -3 -24 0 -24 7 0 7 10 10 24 7
13 -2 23 -6 23 -7z m63 8 c-7 -2 -19 -2 -25 0 -7 3 -2 5 12 5 14 0 19 -2 13
-5z m-331 -63 c-42 -26 -56 -26 -17 0 17 11 35 20 40 20 6 0 -5 -9 -23 -20z
m738 -2 c0 -19 -2 -20 -10 -8 -13 19 -13 30 0 30 6 0 10 -10 10 -22z m-673 6
c-3 -3 -12 -4 -19 -1 -8 3 -5 6 6 6 11 1 17 -2 13 -5z m493 -12 c0 -24 -284
-55 -317 -34 -6 4 37 8 95 8 63 1 130 8 162 17 30 9 56 16 58 16 1 1 2 -3 2
-7z m230 -22 c-6 -11 -16 -20 -22 -20 -6 0 -3 9 7 20 10 11 20 20 22 20 2 0
-1 -9 -7 -20z m-126 -14 c-3 -9 -10 -13 -15 -10 -5 3 -3 11 4 19 15 16 19 13
11 -9z m66 11 c0 -2 -16 -18 -35 -37 -19 -19 -35 -31 -35 -28 0 4 14 20 31 37
28 28 39 36 39 28z m-96 -23 c4 -9 4 -19 1 -22 -3 -3 -5 0 -5 7 0 15 -97 6
-117 -11 -9 -7 -13 -7 -13 1 0 6 12 13 28 17 15 3 41 10 57 14 43 12 42 12 49
-6z m100 -35 c-10 -11 -28 -25 -39 -31 -12 -5 -7 3 13 21 37 35 55 42 26 10z
m-474 1 c0 -5 15 -11 33 -11 26 -2 28 -3 7 -6 -14 -2 -41 3 -60 11 -34 15 -34
15 -7 16 15 0 27 -4 27 -10z m187 4 c-7 -7 -159 -6 -166 1 -2 3 35 5 84 5 49
0 85 -3 82 -6z m168 -4 c-3 -5 -10 -10 -16 -10 -5 0 -9 5 -9 10 0 6 7 10 16
10 8 0 12 -4 9 -10z m194 -12 c-9 -16 -14 -19 -17 -9 -2 7 2 17 9 22 20 13 21
11 8 -13z m-978 -11 c-10 -9 -11 -8 -5 6 3 10 9 15 12 12 3 -3 0 -11 -7 -18z
m720 -46 c-17 -15 -31 -33 -31 -41 0 -13 -2 -13 -10 0 -14 22 -12 27 10 33 20
5 29 37 10 37 -5 0 -2 9 7 20 17 19 17 19 31 -1 13 -19 12 -23 -17 -48z m-381
20 c0 -3 -9 -12 -20 -19 -12 -7 -20 -8 -20 -2 0 5 5 10 11 10 6 0 9 7 6 14 -4
10 -1 13 9 9 7 -3 14 -8 14 -12z m581 -13 c-30 -31 -33 -37 -45 -90 -4 -16
-12 -28 -18 -28 -9 0 -9 3 0 12 7 7 12 24 12 38 0 27 53 100 72 100 6 0 -4
-14 -21 -32z m-551 12 c0 -5 -4 -10 -10 -10 -5 0 -10 5 -10 10 0 6 5 10 10 10
6 0 10 -4 10 -10z m480 -11 c0 -5 -4 -7 -10 -4 -5 3 -10 -1 -10 -10 0 -10 -5
-13 -12 -9 -8 5 -9 2 -5 -10 4 -9 3 -14 -2 -11 -5 3 -12 -3 -14 -12 -4 -15 -5
-14 -6 3 0 11 8 30 19 42 22 24 40 29 40 11z m250 -20 c0 -5 -4 -9 -10 -9 -5
0 -10 7 -10 16 0 8 5 12 10 9 6 -3 10 -10 10 -16z m-1183 5 c-3 -3 -12 -4 -19
-1 -8 3 -5 6 6 6 11 1 17 -2 13 -5z m563 -4 c0 -5 -7 -7 -15 -4 -8 4 -15 8
-15 10 0 2 7 4 15 4 8 0 15 -4 15 -10z m645 -20 c3 -5 1 -10 -4 -10 -6 0 -11
5 -11 10 0 6 2 10 4 10 3 0 8 -4 11 -10z m-459 -21 c3 -6 0 -18 -8 -26 -14
-13 -16 -13 -21 1 -4 10 -1 13 9 9 7 -3 14 -1 14 5 0 6 -6 13 -12 15 -10 4
-10 6 -1 6 6 1 15 -4 19 -10z m106 -41 c-7 -7 -12 -8 -12 -2 0 6 3 14 7 17 3
4 9 5 12 2 2 -3 -1 -11 -7 -17z m-30 -11 c-7 -8 -9 -17 -5 -20 3 -4 -1 -7 -10
-7 -17 0 -21 -11 -17 -39 1 -9 -4 -12 -15 -8 -9 4 -18 1 -21 -7 -3 -8 -13 -17
-21 -20 -9 -4 1 15 22 41 60 75 68 83 73 78 3 -2 0 -11 -6 -18z m388 8 c0 -8
-2 -15 -4 -15 -2 0 -6 7 -10 15 -3 8 -1 15 4 15 6 0 10 -7 10 -15z m-1340 -5
c0 -5 -4 -10 -10 -10 -5 0 -10 5 -10 10 0 6 5 10 10 10 6 0 10 -4 10 -10z
m1047 -5 c0 -8 -4 -15 -9 -15 -4 0 -8 7 -8 15 0 8 4 15 8 15 5 0 9 -7 9 -15z
m-1077 -24 c0 -6 -4 -13 -10 -16 -5 -3 -10 1 -10 9 0 9 5 16 10 16 6 0 10 -4
10 -9z m635 -19 c-3 -3 -11 0 -18 7 -9 10 -8 11 6 5 10 -3 15 -9 12 -12z m255
-1 c-5 -11 -15 -23 -21 -27 -6 -3 -3 5 6 20 20 30 30 35 15 7z m200 -7 c0 -8
-4 -14 -10 -14 -5 0 -10 2 -10 4 0 2 -3 12 -6 20 -5 12 -2 15 10 10 9 -3 16
-12 16 -20z m-50 6 c0 -5 -5 -10 -11 -10 -5 0 -7 5 -4 10 3 6 8 10 11 10 2 0
4 -4 4 -10z m-1077 -15 c-3 -9 -8 -14 -10 -11 -3 3 -2 9 2 15 9 16 15 13 8 -4z
m1452 -6 c11 -17 -1 -21 -15 -4 -8 9 -8 15 -2 15 6 0 14 -5 17 -11z m-1405 -3
c0 -3 -4 -8 -10 -11 -5 -3 -10 -1 -10 4 0 6 5 11 10 11 6 0 10 -2 10 -4z m70
-5 c0 -4 -11 -6 -25 -3 -14 2 -25 6 -25 8 0 2 11 4 25 4 14 0 25 -4 25 -9z
m84 -45 c10 -3 16 -9 13 -12 -8 -9 -77 35 -77 49 0 6 10 1 23 -10 12 -11 31
-23 41 -27z m843 24 c-1 -11 -5 -20 -9 -20 -10 0 -10 4 -2 24 8 22 13 20 11
-4z m-157 1 c0 -5 -11 -22 -24 -38 -13 -15 -35 -48 -49 -73 -23 -42 -57 -66
-57 -40 0 6 5 8 12 4 8 -5 9 -2 5 10 -6 14 -3 17 9 12 12 -5 15 -2 10 11 -4
10 -4 14 0 11 3 -4 18 9 31 30 55 80 63 89 63 73z m-880 -5 c0 -2 -7 -6 -15
-10 -8 -3 -15 -1 -15 4 0 6 7 10 15 10 8 0 15 -2 15 -4z m123 -28 c38 -37 54
-116 37 -178 -9 -34 -9 -45 2 -51 9 -6 15 -2 18 12 8 31 25 22 22 -12 -2 -29
-1 -30 35 -27 32 3 38 0 38 -17 0 -12 -9 -21 -25 -25 -14 -3 -30 -16 -36 -28
-6 -13 -20 -33 -31 -45 -11 -12 -25 -31 -31 -42 -5 -11 -40 -35 -77 -54 -36
-19 -70 -42 -76 -52 -5 -10 -43 -42 -84 -70 -41 -29 -75 -56 -75 -59 0 -4 -11
-19 -25 -33 -23 -23 -25 -30 -20 -79 4 -29 11 -66 15 -83 5 -16 6 -57 2 -90
l-7 -60 -38 50 c-21 28 -65 86 -98 130 -34 44 -64 82 -67 85 -10 7 -52 68 -52
75 0 3 4 5 10 5 30 0 122 75 157 127 20 32 42 61 48 65 5 4 7 8 3 8 -4 0 4 11
17 25 14 13 25 29 25 35 0 22 20 9 26 -17 13 -58 17 -65 56 -94 23 -16 45 -29
50 -29 19 0 6 21 -27 42 -34 23 -41 35 -65 115 -16 51 -8 140 15 180 9 15 14
20 11 10 -15 -49 -17 -67 -8 -67 6 0 16 17 23 38 13 41 108 142 133 142 9 0
16 5 16 10 0 6 9 10 20 10 15 0 20 -7 20 -28 0 -17 9 -37 21 -48 l22 -19 -7
49 c-7 57 -37 96 -73 96 -15 0 -22 4 -17 11 9 15 79 5 97 -13z m1375 4 c2 -7
-2 -10 -12 -6 -9 3 -16 11 -16 16 0 13 23 5 28 -10z m-577 -6 c5 3 9 2 9 -1 0
-8 -41 -68 -51 -75 -4 -3 -10 -17 -14 -32 -9 -34 -35 -59 -35 -34 0 10 -5 14
-11 10 -7 -4 -7 2 1 17 18 34 24 38 16 12 -4 -13 -3 -23 2 -23 13 0 23 27 16
45 -4 9 0 15 8 15 16 0 47 49 42 68 -1 7 0 8 3 2 2 -5 9 -8 14 -4z m209 4 c0
-5 -7 -7 -15 -4 -8 4 -15 8 -15 10 0 2 7 4 15 4 8 0 15 -4 15 -10z m-885 -10
c-3 -5 0 -10 7 -10 7 0 24 -9 38 -20 14 -11 21 -20 15 -19 -17 0 -85 45 -78
52 10 11 25 8 18 -3z m523 -35 c-6 -13 -15 -22 -20 -19 -5 3 -2 15 8 25 23 25
26 24 12 -6z m187 -39 c-15 -25 -34 -46 -42 -46 -10 0 -3 13 21 40 20 22 36
45 36 52 0 6 3 9 6 5 3 -3 -6 -26 -21 -51z m252 12 c-3 -8 -6 -5 -6 6 -1 11 2
17 5 13 3 -3 4 -12 1 -19z m-864 -5 c-3 -10 -3 -15 2 -11 4 4 24 -4 44 -17 19
-14 39 -25 44 -25 5 0 15 -7 23 -15 23 -23 3 -18 -37 9 -19 13 -53 32 -75 41
-38 17 -38 21 3 34 1 1 0 -7 -4 -16z m837 -16 c0 -18 -2 -19 -10 -7 -13 20
-13 43 0 35 6 -3 10 -16 10 -28z m-480 13 c0 -5 -2 -10 -4 -10 -3 0 -8 5 -11
10 -3 6 -1 10 4 10 6 0 11 -4 11 -10z m-153 -22 c-3 -8 -6 -5 -6 6 -1 11 2 17
5 13 3 -3 4 -12 1 -19z m130 -10 c-3 -8 -6 -5 -6 6 -1 11 2 17 5 13 3 -3 4
-12 1 -19z m33 -12 c0 -2 -7 -9 -15 -16 -13 -11 -14 -10 -9 4 5 14 24 23 24
12z m-50 -26 c0 -5 -2 -10 -4 -10 -3 0 -8 5 -11 10 -3 6 -1 10 4 10 6 0 11 -4
11 -10z m234 -20 c-17 -33 -37 -51 -27 -23 6 17 32 53 39 53 1 0 -4 -13 -12
-30z m-90 -4 c-3 -9 -10 -16 -15 -16 -5 0 -4 9 3 20 14 22 21 20 12 -4z m-237
-26 c-1 -22 -5 -24 -27 -10 -10 6 -11 10 -2 10 6 0 12 7 12 16 0 8 4 13 9 9 6
-3 9 -14 8 -25z m263 20 c0 -5 -5 -10 -11 -10 -5 0 -7 5 -4 10 3 6 8 10 11 10
2 0 4 -4 4 -10z m-186 -24 c-3 -9 -15 -16 -25 -16 -10 0 -19 -4 -19 -10 0 -5
5 -10 12 -10 6 0 9 -2 6 -5 -11 -11 -34 6 -35 26 -1 15 3 19 17 14 10 -3 24 1
32 9 16 17 21 14 12 -8z m66 20 c0 -2 -8 -10 -17 -17 -16 -13 -17 -12 -4 4 13
16 21 21 21 13z m30 0 c0 -3 -4 -8 -10 -11 -5 -3 -10 -1 -10 4 0 6 5 11 10 11
6 0 10 -2 10 -4z m560 -16 c0 -11 -2 -20 -4 -20 -2 0 -6 9 -9 20 -3 11 -1 20
4 20 5 0 9 -9 9 -20z m-490 -14 c0 -3 -4 -8 -10 -11 -5 -3 -10 -1 -10 4 0 6 5
11 10 11 6 0 10 -2 10 -4z m448 -21 c27 -31 27 -34 4 -28 -10 2 -24 -3 -31
-11 -15 -18 -41 -21 -41 -6 0 6 9 10 19 10 17 0 31 18 31 40 0 5 -8 11 -17 13
-14 4 -15 5 -2 6 8 0 25 -10 37 -24z m-531 9 c-3 -3 -12 -4 -19 -1 -8 3 -5 6
6 6 11 1 17 -2 13 -5z m33 -14 c0 -5 -4 -10 -10 -10 -5 0 -10 5 -10 10 0 6 5
10 10 10 6 0 10 -4 10 -10z m80 -3 c0 -7 -7 -22 -15 -33 -13 -17 -13 -16 -3
14 13 34 18 40 18 19z m485 3 c3 -5 1 -10 -4 -10 -6 0 -11 5 -11 10 0 6 2 10
4 10 3 0 8 -4 11 -10z m-543 -22 c-7 -7 -12 -8 -12 -2 0 6 3 14 7 17 3 4 9 5
12 2 2 -3 -1 -11 -7 -17z m-108 -17 c4 -5 -5 -4 -19 2 -14 7 -25 16 -25 20 0
9 36 -9 44 -22z m513 23 c-3 -3 -12 -4 -19 -1 -8 3 -5 6 6 6 11 1 17 -2 13 -5z
m180 -16 c-3 -8 -6 -5 -6 6 -1 11 2 17 5 13 3 -3 4 -12 1 -19z m-84 -15 c-7
-2 -19 -2 -25 0 -7 3 -2 5 12 5 14 0 19 -2 13 -5z m-547 -19 c19 -15 19 -15
-1 -6 -11 5 -27 12 -35 15 -13 5 -13 6 1 6 8 1 24 -6 35 -15z m644 12 c0 -2
-7 -7 -16 -10 -8 -3 -12 -2 -9 4 6 10 25 14 25 6z m-684 -38 c3 -5 -6 -8 -23
-6 -26 3 -42 14 -43 30 0 9 59 -11 66 -24z m134 28 c0 -2 -7 -7 -16 -10 -8 -3
-12 -2 -9 4 6 10 25 14 25 6z m-45 -16 c3 -5 2 -10 -4 -10 -5 0 -13 5 -16 10
-3 6 -2 10 4 10 5 0 13 -4 16 -10z m540 0 c3 -5 1 -10 -4 -10 -6 0 -11 5 -11
10 0 6 2 10 4 10 3 0 8 -4 11 -10z m175 6 c0 -3 -4 -8 -10 -11 -5 -3 -10 -1
-10 4 0 6 5 11 10 11 6 0 10 -2 10 -4z m-675 -26 c-3 -5 -12 -10 -18 -10 -7 0
-6 4 3 10 19 12 23 12 15 0z m572 -5 c9 -24 -1 -27 -15 -5 -8 13 -8 20 -2 20
6 0 13 -7 17 -15z m-621 -45 l3 -25 -11 23 c-6 12 -14 22 -18 22 -3 0 -15 7
-26 15 -17 14 -16 14 15 2 24 -9 35 -20 37 -37z m570 31 c-3 -4 19 -35 49 -67
30 -33 55 -62 55 -66 0 -5 6 -8 13 -8 8 0 14 -6 14 -14 0 -8 -6 -12 -14 -9 -7
3 -13 8 -13 12 0 4 -13 23 -30 41 -16 18 -30 37 -30 40 0 4 -11 13 -25 20 -14
7 -25 19 -25 27 0 7 -6 13 -12 13 -9 0 -8 4 2 10 19 12 23 12 16 1z m-688 -47
c-3 -27 -4 -26 -9 8 -3 22 -1 34 4 29 5 -5 7 -21 5 -37z m249 19 c0 -9 -6 -9
-21 -1 -30 15 -30 16 -3 14 13 0 24 -6 24 -13z m534 -16 c12 -22 12 -22 -10
-3 -11 11 -21 23 -21 28 0 14 19 -1 31 -25z m-626 13 c3 -5 -1 -10 -10 -10 -9
0 -13 5 -10 10 3 6 8 10 10 10 2 0 7 -4 10 -10z m165 0 c-8 -5 -19 -10 -25
-10 -5 0 -3 5 5 10 8 5 20 10 25 10 6 0 3 -5 -5 -10z m170 -21 c0 -6 -4 -7
-10 -4 -5 3 -10 11 -10 16 0 6 5 7 10 4 6 -3 10 -11 10 -16z m-275 -9 c3 -5 2
-10 -4 -10 -5 0 -13 5 -16 10 -3 6 -2 10 4 10 5 0 13 -4 16 -10z m105 -4 c-4
-4 -16 -4 -26 2 -16 9 -14 10 8 9 15 -1 23 -6 18 -11z m-67 -18 c2 -7 0 -22
-4 -33 l-9 -20 2 20 c2 11 -1 26 -5 33 -5 6 -4 12 1 12 6 0 12 -6 15 -12z
m287 -11 c11 -5 9 -6 -4 -4 -11 1 -21 9 -23 17 -3 10 -2 11 4 4 4 -6 15 -14
23 -17z m275 13 c3 -5 1 -10 -4 -10 -6 0 -11 5 -11 10 0 6 2 10 4 10 3 0 8 -4
11 -10z m-668 -37 c-3 -10 -5 -4 -5 12 0 17 2 24 5 18 2 -7 2 -21 0 -30z m254
21 c-14 -11 -38 -6 -59 11 -1 1 15 2 36 1 33 0 37 -3 23 -12z m64 6 c3 -5 1
-10 -4 -10 -6 0 -11 5 -11 10 0 6 2 10 4 10 3 0 8 -4 11 -10z m-183 -22 c-7
-7 -12 -8 -12 -2 0 6 3 14 7 17 3 4 9 5 12 2 2 -3 -1 -11 -7 -17z m565 7 c0
-8 -4 -15 -9 -15 -4 0 -8 7 -8 15 0 8 4 15 8 15 5 0 9 -7 9 -15z m37 -11 c-1
-14 -6 -29 -10 -32 -4 -4 -4 1 -1 10 3 10 1 20 -5 24 -7 4 -6 9 3 15 8 5 15 9
15 9 1 0 0 -12 -2 -26z m-444 6 c0 -5 -4 -10 -10 -10 -5 0 -10 5 -10 10 0 6 5
10 10 10 6 0 10 -4 10 -10z m150 -11 c0 -14 -17 -10 -23 5 -4 10 -1 13 9 9 7
-3 14 -9 14 -14z m-260 1 c8 -5 12 -11 9 -14 -3 -3 -14 1 -25 9 -21 16 -8 20
16 5z m265 -74 c42 -25 54 -36 38 -36 -12 0 -28 6 -35 13 -7 6 -30 21 -50 31
-20 11 -35 24 -32 28 3 4 -5 8 -18 9 -13 0 -17 3 -10 6 10 4 10 8 0 21 -7 10
1 5 17 -10 17 -14 57 -42 90 -62z m-504 -10 c13 -14 11 -46 -2 -46 -6 0 -8 7
-5 16 3 9 0 24 -7 35 -8 11 -11 31 -8 51 l6 33 3 -40 c2 -22 8 -44 13 -49z
m379 74 c0 -5 -2 -10 -4 -10 -3 0 -8 5 -11 10 -3 6 -1 10 4 10 6 0 11 -4 11
-10z m285 -10 c3 -5 1 -10 -4 -10 -6 0 -11 5 -11 10 0 6 2 10 4 10 3 0 8 -4
11 -10z m-741 -97 c3 -18 1 -35 -4 -38 -6 -4 -10 5 -10 18 0 13 -2 46 -5 73
-4 45 -4 46 5 14 5 -19 12 -49 14 -67z m194 50 c-1 -41 -2 -43 -5 -13 -3 19
-9 41 -15 47 -8 10 -6 13 6 13 13 0 16 -10 14 -47z m211 23 c18 -13 28 -27 22
-30 -5 -4 -16 3 -25 15 -9 14 -21 19 -31 15 -9 -3 -14 -2 -10 3 3 5 -1 12 -7
14 -9 4 -8 6 3 6 8 1 30 -10 48 -23z m218 8 c-3 -3 -12 -4 -19 -1 -8 3 -5 6 6
6 11 1 17 -2 13 -5z m-350 -41 c-3 -10 -5 -4 -5 12 0 17 2 24 5 18 2 -7 2 -21
0 -30z m-2387 -2 c0 -42 -24 -92 -62 -129 -40 -40 -42 -41 -61 -24 -21 18 -31
39 -41 88 -7 29 -4 33 36 57 66 38 128 42 128 8z m2660 -33 c25 -15 42 -28 38
-28 -10 0 -120 59 -133 72 -15 14 44 -13 95 -44z m-413 10 c-3 -7 -5 -2 -5 12
0 14 2 19 5 13 2 -7 2 -19 0 -25z m338 -6 c-3 -3 -11 0 -18 7 -9 10 -8 11 6 5
10 -3 15 -9 12 -12z m-265 -34 c0 -16 -3 -19 -11 -11 -6 6 -8 16 -5 22 11 17
16 13 16 -11z m460 7 c7 -9 20 -13 29 -10 11 4 13 3 5 -4 -11 -12 -64 7 -64
22 0 12 17 8 30 -8z m-521 -42 c5 -17 5 -36 0 -44 -6 -10 -9 -7 -9 11 0 14 -3
36 -7 50 -8 35 6 19 16 -17z m611 33 c0 -3 -4 -8 -10 -11 -5 -3 -10 -1 -10 4
0 6 5 11 10 11 6 0 10 -2 10 -4z m40 -6 c0 -5 -5 -10 -11 -10 -5 0 -7 5 -4 10
3 6 8 10 11 10 2 0 4 -4 4 -10z m-745 -30 c9 -16 11 -30 6 -30 -5 0 -11 8 -15
18 -3 9 -9 23 -12 30 -12 26 6 10 21 -18z m519 14 c3 -8 2 -12 -4 -9 -6 3 -10
10 -10 16 0 14 7 11 14 -7z m54 -3 c3 -8 -1 -12 -9 -9 -7 2 -15 10 -17 17 -3
8 1 12 9 9 7 -2 15 -10 17 -17z m20 -25 c-7 -8 -15 -12 -17 -11 -5 6 10 25 20
25 5 0 4 -6 -3 -14z m-623 -6 c3 -5 1 -10 -4 -10 -6 0 -11 5 -11 10 0 6 2 10
4 10 3 0 8 -4 11 -10z m295 -25 c0 -5 -5 -3 -10 5 -5 8 -10 20 -10 25 0 6 5 3
10 -5 5 -8 10 -19 10 -25z m355 25 c-3 -5 -12 -10 -18 -10 -7 0 -6 4 3 10 19
12 23 12 15 0z m125 -5 c0 -9 -6 -12 -16 -8 -13 5 -13 7 -2 14 17 11 18 11 18
-6z m-85 -13 c-3 -3 -11 0 -18 7 -9 10 -8 11 6 5 10 -3 15 -9 12 -12z m-685
-32 c0 -16 -4 -30 -9 -30 -5 0 -9 14 -9 30 1 17 5 30 10 30 4 0 8 -13 8 -30z
m-1145 10 c3 -5 1 -10 -4 -10 -6 0 -11 5 -11 10 0 6 2 10 4 10 3 0 8 -4 11
-10z m282 -12 c-3 -8 -6 -5 -6 6 -1 11 2 17 5 13 3 -3 4 -12 1 -19z m1593 8
c0 -2 -7 -9 -15 -16 -13 -11 -14 -10 -9 4 5 14 24 23 24 12z m75 -6 c3 -5 1
-10 -4 -10 -6 0 -11 5 -11 10 0 6 2 10 4 10 3 0 8 -4 11 -10z m42 -2 c5 -7 10
-23 11 -36 1 -19 -2 -21 -13 -12 -8 7 -12 16 -9 22 3 5 0 15 -6 23 -7 9 -8 15
-2 15 5 0 14 -6 19 -12z m-637 -8 c0 -5 -4 -10 -10 -10 -5 0 -10 5 -10 10 0 6
5 10 10 10 6 0 10 -4 10 -10z m591 -47 c31 -34 23 -32 -23 7 -16 12 -24 30
-15 30 2 0 19 -17 38 -37z m-1644 -5 c-3 -7 -5 -2 -5 12 0 14 2 19 5 13 2 -7
2 -19 0 -25z m1123 1 c0 -18 -18 -9 -23 12 -4 16 -3 18 9 8 8 -6 14 -15 14
-20z m-268 -5 c-3 -19 -7 -22 -13 -12 -13 20 -11 38 5 38 9 0 12 -8 8 -26z
m135 4 c-3 -8 -6 -5 -6 6 -1 11 2 17 5 13 3 -3 4 -12 1 -19z m-117 -49 c0 25
12 3 16 -29 2 -19 0 -29 -7 -25 -5 4 -7 15 -4 26 4 12 2 19 -5 17 -7 -2 -15 4
-17 12 -4 13 -3 13 6 0 9 -12 11 -13 11 -1z m137 -11 c-3 -8 -6 -5 -6 6 -1 11
2 17 5 13 3 -3 4 -12 1 -19z m100 -40 c-3 -8 -6 -5 -6 6 -1 11 2 17 5 13 3 -3
4 -12 1 -19z m28 -28 c3 -5 1 -10 -4 -10 -6 0 -11 5 -11 10 0 6 2 10 4 10 3 0
8 -4 11 -10z m-240 -21 c10 -30 0 -33 -13 -4 -6 14 -7 25 -2 25 5 0 12 -9 15
-21z m312 6 c9 -24 -1 -27 -15 -5 -8 13 -8 20 -2 20 6 0 13 -7 17 -15z m500
-7 c-3 -8 -6 -5 -6 6 -1 11 2 17 5 13 3 -3 4 -12 1 -19z m-774 -7 c-3 -10 0
-22 6 -25 6 -4 11 -13 11 -19 0 -7 -4 -6 -10 3 -5 8 -12 11 -16 7 -4 -3 -1
-15 7 -24 12 -17 12 -17 -4 -2 -13 11 -16 24 -11 47 4 18 10 32 14 32 5 0 6
-8 3 -19z m30 2 c-4 -11 -3 -14 5 -9 8 5 10 2 5 -10 -5 -15 -7 -15 -15 0 -5 9
-6 21 -3 26 10 16 15 12 8 -7z m317 13 c0 -3 -4 -8 -10 -11 -5 -3 -10 -1 -10
4 0 6 5 11 10 11 6 0 10 -2 10 -4z m-94 -63 c-7 -7 -26 7 -26 19 0 6 6 6 15
-2 9 -7 13 -15 11 -17z m78 -12 c-6 -6 -34 20 -34 32 0 6 8 2 19 -9 10 -10 17
-21 15 -23z m-259 -1 c-3 -5 1 -10 9 -10 9 0 16 -7 16 -15 0 -8 -4 -15 -10
-15 -12 0 -31 35 -23 44 10 9 15 7 8 -4z m195 -32 c0 -12 -10 -9 -26 6 -20 21
-17 28 6 14 11 -7 20 -16 20 -20z m327 16 c-3 -3 -12 -4 -19 -1 -8 3 -5 6 6 6
11 1 17 -2 13 -5z m-201 -18 c15 -8 31 -13 36 -10 4 3 8 0 8 -5 0 -6 12 -11
28 -12 15 0 21 -3 14 -6 -17 -7 -122 26 -122 38 0 12 3 12 36 -5z m-341 -5 c3
-5 1 -12 -5 -16 -5 -3 -10 1 -10 9 0 18 6 21 15 7z m186 -28 c13 -16 12 -17
-3 -4 -17 13 -22 21 -14 21 2 0 10 -8 17 -17z m106 -3 c14 -11 21 -20 15 -20
-6 0 -14 5 -17 10 -3 6 -15 10 -26 10 -11 0 -17 5 -14 10 9 14 13 13 42 -10z
m440 -2 c-3 -8 -6 -5 -6 6 -1 11 2 17 5 13 3 -3 4 -12 1 -19z m-683 -18 c3 0
6 7 6 15 0 8 4 15 8 15 10 0 9 -36 -1 -46 -8 -9 -47 25 -47 40 0 6 7 3 14 -6
7 -10 16 -18 20 -18z m484 3 c-10 -2 -26 -2 -35 0 -10 3 -2 5 17 5 19 0 27 -2
18 -5z m-283 -23 c3 -5 1 -10 -4 -10 -6 0 -11 5 -11 10 0 6 2 10 4 10 3 0 8
-4 11 -10z m100 0 c3 -5 -1 -10 -9 -10 -9 0 -16 5 -16 10 0 6 4 10 9 10 6 0
13 -4 16 -10z m74 -36 c2 -2 -5 -4 -16 -4 -12 0 -23 7 -27 15 -5 13 -2 14 17
4 12 -6 24 -13 26 -15z m-1599 -8 c0 -8 -4 -17 -9 -21 -5 -3 -17 -27 -25 -53
-22 -63 -81 -142 -106 -142 -24 0 -26 13 -5 30 8 7 41 54 72 106 56 91 73 109
73 80z m1336 -5 c30 -15 33 -19 14 -17 -34 4 -60 16 -60 27 0 12 1 12 46 -10z
m171 3 c-3 -3 -12 -4 -19 -1 -8 3 -5 6 6 6 11 1 17 -2 13 -5z m191 -1 c-15 -2
-42 -2 -60 0 -18 2 -6 4 27 4 33 0 48 -2 33 -4z m-143 -23 c8 -13 -5 -13 -25
0 -13 8 -13 10 2 10 9 0 20 -4 23 -10z m45 -10 c13 -8 13 -10 -2 -10 -9 0 -20
5 -23 10 -8 13 5 13 25 0z m-170 -26 l25 -15 -25 7 c-14 3 -32 10 -40 15 -13
7 -13 8 0 8 8 0 26 -6 40 -15z m90 0 c0 -2 -9 -4 -20 -4 -11 0 -20 4 -20 9 0
5 9 7 20 4 11 -3 20 -7 20 -9z m280 -20 c0 -8 -5 -12 -10 -9 -6 4 -8 11 -5 16
9 14 15 11 15 -7z m171 -7 c-10 -9 -11 -8 -5 6 3 10 9 15 12 12 3 -3 0 -11 -7
-18z m-156 -67 c13 -6 15 -9 5 -9 -8 0 -22 4 -30 9 -18 12 -2 12 25 0z m62
-16 c-3 -3 -12 -4 -19 -1 -8 3 -5 6 6 6 11 1 17 -2 13 -5z m103 -9 c0 -2 -6
-5 -13 -8 -8 -3 -14 1 -14 8 0 7 6 11 14 8 7 -3 13 -6 13 -8z m24 -29 c-3 -9
-12 -12 -22 -9 -15 6 -9 11 25 22 1 1 0 -5 -3 -13z m31 -24 c-10 -10 -16 -12
-13 -7 3 6 8 19 13 30 5 14 9 16 12 7 3 -8 -3 -21 -12 -30z m-1779 -114 c-9
-47 -28 -79 -105 -181 -108 -145 -228 -247 -256 -219 -8 8 16 32 31 32 8 0 14
6 14 13 0 6 29 42 65 79 80 84 124 151 166 255 l32 82 30 -15 c25 -14 28 -20
23 -46z m-526 -548 c-11 -21 -192 -171 -199 -164 -2 2 9 14 25 26 16 13 63 53
104 90 41 37 76 67 78 68 1 0 -2 -9 -8 -20z m700 -268 c0 -4 -4 -12 -10 -18
-6 -6 -5 -25 2 -53 l11 -43 18 47 c10 26 15 54 12 62 -5 13 0 15 33 9 49 -10
54 -14 31 -30 -9 -7 -17 -22 -17 -32 0 -10 -13 -46 -28 -79 -16 -33 -34 -77
-41 -98 -11 -32 -17 -37 -42 -37 -22 0 -32 6 -39 25 -15 39 -40 153 -40 181 0
13 -9 32 -20 42 -21 17 -21 17 7 23 42 10 123 10 123 1z m-255 -48 c33 -36 39
-59 22 -93 -14 -28 -13 -30 7 -35 26 -7 81 -75 70 -86 -5 -5 -30 -11 -55 -15
-43 -6 -48 -5 -72 24 -34 41 -44 39 -18 -3 12 -18 21 -36 21 -40 0 -9 -81 -58
-87 -53 -2 3 -8 31 -13 63 -11 81 -49 171 -75 179 -19 5 -19 6 5 25 80 63 156
76 195 34z m-1908 -6 c-3 -12 -2 -28 2 -37 5 -9 4 -42 -2 -74 -9 -48 -19 -67
-54 -104 -43 -46 -50 -65 -56 -152 -2 -32 -8 -48 -25 -59 -21 -14 -22 -13 -22
10 0 28 87 298 101 312 5 6 9 16 9 24 0 17 39 102 46 102 4 0 4 -10 1 -22z
m2276 -8 c-3 -12 -8 -19 -11 -16 -5 6 5 36 12 36 2 0 2 -9 -1 -20z m70 5 c-3
-9 -8 -14 -10 -11 -3 3 -2 9 2 15 9 16 15 13 8 -4z m80 -17 c18 -12 41 -30 51
-40 11 -10 28 -20 38 -24 19 -6 22 -13 12 -38 -7 -17 -34 -22 -34 -6 0 16 -41
33 -52 22 -13 -13 0 -52 18 -52 18 0 18 -24 0 -39 -10 -8 -16 -9 -21 -1 -3 5
-10 10 -16 10 -15 0 -10 -22 9 -36 16 -13 16 -14 0 -8 -10 3 -18 1 -18 -4 0
-14 37 -25 51 -16 9 5 10 -1 5 -22 -14 -53 -23 -55 -77 -18 -28 19 -57 34 -65
34 -7 0 -18 9 -24 20 -8 16 -6 22 14 35 26 17 56 106 56 168 0 43 10 45 53 15z
m-443 -82 c0 -12 -5 -7 -19 24 -11 24 -11 24 3 6 9 -11 16 -24 16 -30z m-1856
-38 l50 -25 -80 -5 c-43 -3 -80 -5 -81 -4 -1 0 4 22 10 49 10 47 10 47 31 28
12 -10 43 -30 70 -43z m2417 -1 c-10 -9 -11 -8 -5 6 3 10 9 15 12 12 3 -3 0
-11 -7 -18z m-535 4 c-4 -5 0 -12 6 -14 8 -3 6 -6 -4 -6 -18 -1 -24 10 -11 22
9 10 15 8 9 -2z m-410 -18 c18 -24 17 -43 -2 -43 -28 0 -46 -27 -34 -50 14
-26 30 -26 37 0 3 11 9 20 14 20 12 0 33 -43 23 -47 -34 -12 -38 -22 -20 -42
15 -17 22 -18 33 -9 8 6 12 20 10 30 -8 27 25 23 58 -8 l29 -27 -30 -24 c-16
-13 -33 -27 -39 -31 -5 -4 -28 -22 -50 -40 -45 -37 -55 -39 -55 -14 0 10 -11
29 -24 41 -13 12 -39 45 -57 72 -19 27 -40 49 -46 49 -7 0 -13 3 -13 6 0 10
133 133 144 134 5 0 15 -8 22 -17z m41 -35 c-3 -8 -6 -5 -6 6 -1 11 2 17 5 13
3 -3 4 -12 1 -19z m1053 -105 c14 -21 12 -26 -33 -71 -26 -26 -47 -51 -47 -55
0 -4 11 -7 25 -7 14 0 25 -5 25 -11 0 -14 -51 -59 -67 -59 -15 0 -56 50 -72
89 -16 38 -8 50 56 88 50 29 59 63 18 63 -28 0 -30 6 -14 47 17 46 30 44 64
-10 17 -29 38 -62 45 -74z m-584 18 c-24 -174 -50 -198 -44 -42 3 96 3 97 26
93 22 -4 23 -8 18 -51z m155 42 c13 -17 13 -17 -6 -3 -11 8 -22 16 -24 17 -2
2 0 3 6 3 6 0 17 -8 24 -17z m-223 -54 c4 -63 -6 -139 -17 -139 -11 0 -36 127
-32 160 3 26 19 42 36 37 6 -2 11 -28 13 -58z m132 39 c-1 -40 -35 -159 -45
-156 -17 5 -12 158 5 168 25 16 40 11 40 -12z m67 1 c11 -11 10 -21 -6 -64 -5
-11 -14 -40 -22 -64 -23 -73 -35 -60 -28 28 6 94 27 129 56 100z m-273 -41 c9
-44 7 -138 -2 -138 -9 0 -44 92 -47 124 -4 57 38 69 49 14z m416 -26 c0 -7
-10 -29 -23 -50 -12 -20 -28 -49 -35 -64 -6 -16 -19 -28 -28 -28 -22 0 -12 57
21 123 13 26 20 47 16 47 -12 0 -35 -38 -52 -82 -7 -21 -16 -38 -20 -38 -4 0
-10 -10 -14 -22 -8 -22 -8 -22 -12 5 -2 15 4 53 13 85 10 31 18 59 18 62 5 27
20 28 66 2 27 -15 50 -33 50 -40z m211 25 c-10 -9 -11 -8 -5 6 3 10 9 15 12
12 3 -3 0 -11 -7 -18z m-681 -78 c17 -71 0 -85 -33 -27 -34 58 -44 98 -26 109
20 13 45 -21 59 -82z m-83 34 c15 -37 27 -133 16 -133 -12 0 -63 105 -63 129
0 40 30 42 47 4z m593 -3 c18 -10 16 -14 -21 -80 -38 -66 -69 -90 -69 -54 0
17 59 144 67 144 2 0 13 -5 23 -10z m294 -18 c2 -4 -4 -8 -14 -8 -10 0 -16 4
-14 8 3 4 9 8 14 8 5 0 11 -4 14 -8z m-940 -44 c-3 -11 -2 -23 4 -27 9 -6 16
-39 13 -70 -1 -19 -38 28 -57 74 -11 28 -12 40 -3 51 17 21 52 -1 43 -28z
m716 14 c6 -14 8 -27 5 -30 -3 -3 -5 1 -5 9 0 8 -11 -3 -24 -24 -27 -43 -66
-87 -78 -87 -15 0 -8 24 24 92 35 72 58 84 78 40z m-1112 -35 c32 -33 33 -47
5 -47 -17 0 -37 -18 -46 -43 -5 -12 4 -29 26 -54 49 -53 86 -34 87 45 0 15 6
22 19 22 50 0 38 -104 -20 -170 -18 -21 -29 -25 -70 -23 -29 1 -59 10 -73 20
-61 45 -73 158 -23 211 13 15 30 37 36 50 15 29 21 28 59 -11z m149 -9 c-3 -8
-6 -5 -6 6 -1 11 2 17 5 13 3 -3 4 -12 1 -19z m183 -30 c34 -60 36 -68 16 -68
-15 0 -66 62 -66 80 0 6 -6 8 -12 4 -7 -4 -4 2 6 14 11 12 21 22 22 22 2 0 17
-24 34 -52z m-260 6 c0 -8 -5 -12 -10 -9 -6 4 -8 11 -5 16 9 14 15 11 15 -7z
m1077 0 c4 -11 -12 -33 -53 -71 -64 -60 -81 -56 -39 10 50 75 79 95 92 61z
m-294 -42 c55 -30 115 -69 127 -82 3 -3 21 -18 40 -34 l35 -29 -55 7 c-38 5
-87 24 -156 61 l-101 54 -84 -55 c-63 -41 -90 -53 -109 -49 -14 3 -64 6 -112
7 -49 1 -88 5 -88 9 0 10 91 69 107 69 7 0 13 4 13 8 0 10 79 47 130 61 19 6
71 9 115 7 67 -3 90 -8 138 -34z m-580 -24 c27 -32 44 -74 35 -84 -3 -2 -23
14 -45 36 -23 22 -46 40 -53 40 -7 0 -10 7 -6 16 3 9 6 22 6 30 0 21 29 4 63
-38z m1027 48 c0 -3 -4 -8 -10 -11 -5 -3 -10 -1 -10 4 0 6 5 11 10 11 6 0 10
-2 10 -4z m-1306 -40 c-3 -9 -10 -16 -15 -16 -6 0 -5 9 1 21 13 24 24 20 14
-5z m1196 4 c6 -11 7 -20 3 -20 -17 0 -111 -99 -99 -103 7 -3 20 7 30 22 29
41 76 75 88 63 5 -5 7 -18 4 -28 -8 -25 -109 -91 -114 -75 -2 6 -10 11 -17 11
-30 0 -24 23 20 85 49 68 67 78 85 45z m157 -6 c-3 -3 -12 -4 -19 -1 -8 3 -5
6 6 6 11 1 17 -2 13 -5z m-1133 -44 c11 0 45 -43 46 -57 0 -7 6 -13 13 -14 9
0 9 -2 0 -5 -7 -3 -39 13 -72 36 -55 36 -60 43 -49 60 12 19 13 19 33 0 12
-11 25 -20 29 -20z m1207 -1 c15 -36 8 -51 -63 -138 -54 -65 -64 -71 -72 -43
-17 61 -16 79 4 97 27 25 25 38 -5 31 -21 -5 -27 -2 -36 20 -12 32 -3 40 56
50 22 3 46 10 54 14 23 13 49 0 62 -31z m-1395 -16 c-7 -7 -26 7 -26 19 0 6 6
6 15 -2 9 -7 13 -15 11 -17z m188 -74 c8 7 17 8 20 3 5 -9 -72 -39 -86 -34 -5
1 -8 -2 -8 -7 0 -6 -9 -9 -19 -8 -22 1 -18 17 4 17 23 0 28 20 10 40 -32 35
-5 44 31 9 27 -26 36 -30 48 -20z m116 31 c0 -5 -5 -10 -11 -10 -5 0 -7 5 -4
10 3 6 8 10 11 10 2 0 4 -4 4 -10z m930 -21 c0 -5 -5 -9 -12 -9 -6 0 -8 3 -5
7 4 3 1 13 -6 22 -11 14 -10 14 6 2 9 -7 17 -17 17 -22z m-34 9 c4 -6 -4 -19
-19 -30 -31 -23 -34 -33 -10 -42 10 -4 26 2 41 16 22 20 24 20 18 4 -3 -10 -1
-25 5 -32 8 -10 8 -14 0 -14 -6 0 -11 4 -11 10 0 5 -7 7 -16 3 -15 -6 -15 -7
1 -19 10 -7 22 -11 26 -8 5 3 6 -2 3 -10 -5 -12 -10 -10 -32 9 -15 13 -38 32
-51 43 l-24 19 22 32 c24 33 35 38 47 19z m-992 -116 c3 -5 -8 -6 -25 -4 -16
2 -29 6 -29 8 0 8 49 4 54 -4z m206 1 c0 -5 -41 -8 -90 -8 -50 0 -90 3 -90 8
0 4 41 7 90 7 50 0 90 -3 90 -7z m105 2 c-23 -8 -83 -10 -79 -3 3 4 24 8 47 7
23 0 38 -2 32 -4z m45 1 c0 -3 -4 -8 -10 -11 -5 -3 -10 -1 -10 4 0 6 5 11 10
11 6 0 10 -2 10 -4z m30 -6 c0 -5 -5 -10 -11 -10 -5 0 -7 5 -4 10 3 6 8 10 11
10 2 0 4 -4 4 -10z m30 6 c0 -3 -4 -8 -10 -11 -5 -3 -10 -1 -10 4 0 6 5 11 10
11 6 0 10 -2 10 -4z m137 -12 c-3 -3 -12 -4 -19 -1 -8 3 -5 6 6 6 11 1 17 -2
13 -5z m43 -4 c0 -5 -4 -10 -10 -10 -5 0 -10 5 -10 10 0 6 5 10 10 10 6 0 10
-4 10 -10z m90 -6 c0 -2 -13 -4 -30 -4 -16 0 -30 4 -30 8 0 5 14 7 30 4 17 -2
30 -6 30 -8z m420 2 c0 -3 -4 -8 -10 -11 -5 -3 -10 -1 -10 4 0 6 5 11 10 11 6
0 10 -2 10 -4z m-1077 -13 c-7 -2 -19 -2 -25 0 -7 3 -2 5 12 5 14 0 19 -2 13
-5z m694 1 c-3 -3 -12 -4 -19 -1 -8 3 -5 6 6 6 11 1 17 -2 13 -5z m333 -4 c0
-5 -2 -10 -4 -10 -3 0 -8 5 -11 10 -3 6 -1 10 4 10 6 0 11 -4 11 -10z m-1450
-4 c0 -2 -9 -6 -20 -9 -11 -3 -18 -1 -14 4 5 9 34 13 34 5z m543 -3 c-7 -2
-19 -2 -25 0 -7 3 -2 5 12 5 14 0 19 -2 13 -5z m651 -14 c5 -5 -5 -4 -24 1
-18 5 -35 12 -39 16 -9 9 53 -7 63 -17z m-1019 -55 c-7 -55 -12 -51 -11 10 1
30 4 49 9 41 4 -7 5 -30 2 -51z m142 44 c-3 -8 -6 -5 -6 6 -1 11 2 17 5 13 3
-3 4 -12 1 -19z m913 2 c0 -5 -2 -10 -4 -10 -3 0 -8 5 -11 10 -3 6 -1 10 4 10
6 0 11 -4 11 -10z m35 0 c3 -5 1 -10 -4 -10 -6 0 -11 5 -11 10 0 6 2 10 4 10
3 0 8 -4 11 -10z m70 0 c4 -7 -3 -8 -22 -4 -38 9 -42 14 -10 14 14 0 29 -5 32
-10z m-1388 -17 c-14 -14 -19 -15 -29 -4 -11 11 -10 13 4 8 10 -3 20 -2 23 3
4 6 9 10 13 10 3 0 -1 -8 -11 -17z m718 7 c3 -5 1 -10 -4 -10 -6 0 -11 5 -11
10 0 6 2 10 4 10 3 0 8 -4 11 -10z m718 3 c-7 -2 -19 -2 -25 0 -7 3 -2 5 12 5
14 0 19 -2 13 -5z m44 -25 c-3 -7 -5 -2 -5 12 0 14 2 19 5 13 2 -7 2 -19 0
-25z m-1490 -30 c-3 -8 -6 -5 -6 6 -1 11 2 17 5 13 3 -3 4 -12 1 -19z m213
-58 c-6 -4 -8 -15 -4 -26 5 -14 4 -16 -4 -9 -7 7 -9 26 -5 50 6 35 7 37 15 15
5 -15 5 -26 -2 -30z m1020 29 c0 -5 -4 -9 -10 -9 -5 0 -10 7 -10 16 0 8 5 12
10 9 6 -3 10 -10 10 -16z m-1263 -21 c-3 -8 -6 -5 -6 6 -1 11 2 17 5 13 3 -3
4 -12 1 -19z m1242 -18 c0 -10 -3 -8 -9 5 -12 27 -12 43 0 25 5 -8 9 -22 9
-30z m-722 -2 c-3 -8 -6 -5 -6 6 -1 11 2 17 5 13 3 -3 4 -12 1 -19z m333 2 c0
-5 -4 -10 -10 -10 -5 0 -10 5 -10 10 0 6 5 10 10 10 6 0 10 -4 10 -10z m-844
-45 c9 -39 0 -30 -15 15 -6 19 -7 30 -2 25 5 -6 13 -23 17 -40z m1601 39 c-3
-3 -12 -4 -19 -1 -8 3 -5 6 6 6 11 1 17 -2 13 -5z m-727 -24 c0 -5 -5 -10 -11
-10 -5 0 -7 5 -4 10 3 6 8 10 11 10 2 0 4 -4 4 -10z m720 -20 c0 -5 -5 -10
-11 -10 -5 0 -7 5 -4 10 3 6 8 10 11 10 2 0 4 -4 4 -10z m127 -22 c-3 -7 -5
-2 -5 12 0 14 2 19 5 13 2 -7 2 -19 0 -25z m-567 -22 c0 -3 -4 -8 -10 -11 -5
-3 -10 -1 -10 4 0 6 5 11 10 11 6 0 10 -2 10 -4z"/>
<path d="M3437 3296 c-28 -30 -32 -68 -12 -106 9 -17 15 -51 14 -78 -3 -78 21
-98 41 -34 15 43 37 72 57 72 11 0 13 8 8 30 -5 23 -3 30 9 30 19 0 37 32 27
48 -14 24 -75 62 -98 62 -13 0 -34 -11 -46 -24z"/>
<path d="M3523 3104 c-27 -29 -28 -34 -10 -34 16 0 47 32 47 48 0 18 -12 13
-37 -14z"/>
<path d="M3380 3047 c0 -11 78 -57 95 -57 16 0 0 21 -27 37 -49 29 -68 34 -68
20z"/>
<path d="M3242 1031 c-13 -8 -6 -41 8 -41 12 0 22 32 13 41 -5 5 -14 5 -21 0z"/>
<path d="M3998 2695 c-7 -8 46 -127 75 -166 22 -31 93 -73 107 -64 19 12 10
30 -38 75 -26 25 -59 60 -72 79 -47 63 -65 82 -72 76z"/>
<path d="M3991 2592 c-1 -25 113 -151 125 -139 4 4 -17 33 -47 65 -30 32 -59
67 -66 77 -11 19 -12 19 -12 -3z"/>
<path d="M4143 2423 c-20 -3 -33 -10 -33 -19 0 -16 56 -20 79 -5 13 8 7 33 -7
29 -4 0 -22 -3 -39 -5z"/>
<path d="M3730 2260 c20 -13 297 -13 305 0 4 7 -51 10 -157 10 -109 0 -158 -4
-148 -10z"/>
<path d="M4363 2263 c-7 -2 -13 -11 -13 -19 0 -8 -4 -14 -9 -14 -5 0 -12 -12
-15 -26 -9 -34 -70 -159 -99 -201 -24 -36 -48 -41 -87 -18 -14 8 -31 14 -37
15 -24 0 -13 -18 22 -39 31 -18 38 -19 67 -6 33 13 111 89 102 98 -6 6 72 173
85 182 12 7 15 35 4 34 -5 0 -14 -3 -20 -6z"/>
<path d="M1806 2181 c-14 -58 -17 -93 -11 -155 15 -188 21 -189 29 -6 10 228
7 259 -18 161z"/>
<path d="M3933 2215 c-19 -21 -16 -69 5 -87 9 -8 38 -25 63 -37 29 -13 49 -30
53 -44 4 -16 8 -19 17 -10 21 21 -1 50 -56 74 -59 26 -87 61 -66 82 6 6 16 12
22 12 5 0 10 5 12 10 3 16 -37 16 -50 0z"/>
<path d="M2550 1654 c0 -8 71 -88 82 -92 19 -8 5 21 -28 58 -33 37 -54 50 -54
34z"/>
<path d="M2498 1562 c-2 -15 -1 -38 2 -52 6 -22 7 -20 13 15 9 53 9 65 -2 65
-5 0 -11 -12 -13 -28z"/>
<path d="M2805 1580 c-3 -6 1 -7 9 -4 18 7 21 14 7 14 -6 0 -13 -4 -16 -10z"/>
<path d="M2417 1573 c-5 -9 -10 -50 -8 -70 1 -7 5 -13 10 -13 5 0 11 20 13 45
3 41 -4 57 -15 38z"/>
<path d="M1875 1171 c-7 -13 -2 -151 7 -151 17 0 79 75 76 93 -3 23 -74 72
-83 58z"/>
<path d="M1750 1097 c0 -1 10 -30 21 -62 12 -33 22 -77 22 -97 1 -21 6 -38 11
-38 5 0 6 21 3 48 -7 58 -37 152 -49 152 -4 0 -8 -1 -8 -3z"/>
<path d="M1786 819 c-8 -81 -8 -109 2 -109 4 0 8 38 9 85 2 47 1 85 -1 85 -2
0 -6 -28 -10 -61z"/>
<path d="M1751 505 c-6 -97 -5 -143 2 -136 4 4 6 46 4 92 -1 46 -4 66 -6 44z"/>
<path d="M1224 433 c-6 -2 -9 -15 -6 -28 3 -18 -1 -27 -14 -32 -11 -3 -22 -11
-26 -17 -13 -19 -9 -74 7 -90 21 -20 19 -46 -4 -46 -20 0 -47 -25 -34 -33 4
-2 25 -7 45 -11 42 -8 55 -21 39 -40 -11 -13 -5 -46 8 -46 3 0 21 9 40 21 27
16 36 18 42 7 5 -7 9 -16 9 -20 0 -14 23 -8 35 9 11 14 16 15 28 5 11 -9 17
-10 22 -2 4 7 16 1 32 -16 20 -22 27 -24 34 -13 5 8 9 22 9 32 0 10 5 27 10
38 10 18 13 18 47 4 43 -18 43 -18 43 -1 0 8 -10 22 -22 30 -22 16 -18 21 26
28 26 4 24 20 -3 33 -28 13 -27 25 3 25 13 0 26 6 29 14 6 16 -11 36 -30 36
-7 0 -13 5 -13 10 0 6 5 10 10 10 6 0 10 7 10 16 0 12 -7 15 -26 11 -21 -4
-25 -1 -21 14 9 34 -18 42 -51 14 -24 -20 -31 -22 -36 -10 -3 9 -12 12 -21 8
-12 -4 -16 -1 -13 13 2 15 -3 19 -26 17 -16 -1 -37 -10 -47 -19 -11 -10 -27
-14 -39 -11 -15 4 -23 0 -28 -14 -6 -16 -10 -17 -25 -7 -9 7 -18 23 -20 35 -4
27 -8 32 -23 26z m4 -98 c-3 -3 -9 2 -12 12 -6 14 -5 15 5 6 7 -7 10 -15 7
-18z m162 -19 c0 -2 -9 -6 -20 -9 -11 -3 -20 -1 -20 4 0 5 9 9 20 9 11 0 20
-2 20 -4z m80 -57 c0 -5 -4 -9 -10 -9 -5 0 -10 7 -10 16 0 8 5 12 10 9 6 -3
10 -10 10 -16z"/>
<path d="M1731 143 c0 -25 1 -26 9 -8 12 27 12 35 0 35 -5 0 -10 -12 -9 -27z"/>
<path d="M2660 25 c0 -14 4 -25 9 -25 4 0 6 11 3 25 -2 14 -6 25 -8 25 -2 0
-4 -11 -4 -25z"/>
<path d="M2846 21 c-4 -7 -5 -15 -2 -18 9 -9 19 4 14 18 -4 11 -6 11 -12 0z"/>
<path d="M3050 15 c0 -9 9 -15 21 -15 18 0 19 2 5 15 -8 8 -17 15 -20 15 -3 0
-6 -7 -6 -15z"/>
<path d="M3830 10 c0 -5 5 -10 10 -10 6 0 10 5 10 10 0 6 -4 10 -10 10 -5 0
-10 -4 -10 -10z"/>
</g>
</svg>
